<?xml version="1.0" encoding="UTF-8"?>
<svg version="1.1" xmlns="http://www.w3.org/2000/svg" width="960" height="256">
<path d="M0 0 C4.58978038 -0.0992963 9.17892788 -0.17166748 13.76953125 -0.21972656 C15.32921244 -0.23977222 16.88881913 -0.26701657 18.44824219 -0.30175781 C20.69745314 -0.35059126 22.9456659 -0.37303815 25.1953125 -0.390625 C26.23161301 -0.42159271 26.23161301 -0.42159271 27.28884888 -0.45318604 C32.32355033 -0.45548993 35.15572943 0.7987463 39 4 C42.75305007 10.9080739 42.44115408 17.85644524 42.43237305 25.57617188 C42.44140264 26.93694949 42.45173278 28.297719 42.46325684 29.65847778 C42.49071274 33.33146245 42.5000957 37.00429231 42.50611091 40.67736626 C42.51552448 44.52378283 42.54173017 48.37008512 42.56611633 52.21643066 C42.60970327 59.49058114 42.63829806 66.76470933 42.66143972 74.03895044 C42.68853337 82.32441318 42.73244222 90.60976049 42.77772844 98.89514065 C42.87046283 115.93003424 42.94219472 132.9649528 43 150 C43.99 150.33 44.98 150.66 46 151 C46 101.83 46 52.66 46 2 C59.86 2 73.72 2 88 2 C88.01458252 6.40706299 88.02916504 10.81412598 88.04418945 15.35473633 C88.09444222 29.88745302 88.160869 44.42006214 88.23571491 58.952672 C88.28071309 67.76701984 88.32011839 76.58132691 88.34643555 85.39575195 C88.36938315 93.07688582 88.40274466 100.75789111 88.44870156 108.43892306 C88.47267768 112.50736994 88.49137759 116.57568913 88.49761391 120.64420509 C88.50364505 124.47164137 88.52357274 128.29875075 88.55427551 132.12606621 C88.56308753 133.53254556 88.5667718 134.93906758 88.56500816 136.34557343 C88.56336299 138.2625903 88.58177332 140.17959343 88.60127258 142.09651184 C88.60588155 143.17040067 88.61049051 144.24428949 88.61523914 145.35072041 C89.04541081 148.31267713 89.66334955 149.2083499 92 151 C91.99723462 150.29615929 91.99446924 149.59231857 91.99162006 148.86714935 C91.92530196 131.72332212 91.8756911 114.57952757 91.84456348 97.43560028 C91.82910943 89.14484545 91.80804793 80.85417636 91.77368164 72.56347656 C91.74373445 65.33540237 91.72441438 58.10739029 91.71773452 50.87925577 C91.71383124 47.05371821 91.70468869 43.22835831 91.68280983 39.40287781 C91.66236047 35.79793962 91.65618313 32.19325133 91.66067696 28.58826065 C91.65946554 26.64314833 91.64336777 24.69806286 91.6267395 22.75302124 C91.65479178 14.7798039 92.02497491 8.77534847 97.11658955 2.31401825 C100.74583106 -0.59855047 103.47365719 -0.64832176 107.92578125 -0.48828125 C108.67337204 -0.48120651 109.42096283 -0.47413177 110.19120789 -0.46684265 C112.56601402 -0.43897645 114.93841351 -0.37626132 117.3125 -0.3125 C118.92770018 -0.28740668 120.54293754 -0.26459531 122.15820312 -0.24414062 C126.10638819 -0.18917647 130.05278689 -0.10296527 134 0 C134.07006302 24.93004578 134.12297494 49.86007681 134.15543652 74.79020119 C134.17090921 86.36553869 134.1920065 97.94081503 134.22631836 109.51611328 C134.2562083 119.60445648 134.27557207 129.69275539 134.28226548 139.78114164 C134.28617841 145.12348435 134.29538283 150.46570035 134.31719017 155.80800247 C134.33754884 160.83614111 134.34383501 165.86410082 134.33932304 170.89227676 C134.34014852 172.73775708 134.34611782 174.58324337 134.35761642 176.42868805 C134.37255088 178.94914853 134.36895023 181.46893417 134.36076355 183.9894104 C134.36950207 184.71899542 134.3782406 185.44858045 134.38724393 186.20027411 C134.33613929 192.02466024 132.75631267 195.92390517 129.01902771 200.34165955 C124.36177347 202.89987161 119.9273378 202.56517818 114.69555664 202.53344727 C112.98253609 202.54637062 112.98253609 202.54637062 111.23490906 202.55955505 C107.45976092 202.58225819 103.68535249 202.57546747 99.91015625 202.56640625 C97.28608479 202.57164 94.66201521 202.57791556 92.03794861 202.58518982 C86.53767579 202.59703322 81.03761367 202.59134961 75.53735352 202.57641602 C69.18702616 202.55949693 62.83738631 202.57532781 56.48713404 202.6076389 C50.36868767 202.63758657 44.2505552 202.63951298 38.13204765 202.6301403 C35.53291365 202.62931985 32.93376543 202.63620107 30.33467293 202.65091133 C26.70055122 202.66832527 23.06790034 202.6538379 19.43383789 202.63110352 C17.82289749 202.64864182 17.82289749 202.64864182 16.17941284 202.66653442 C8.03872589 202.56288946 8.03872589 202.56288946 4.41038513 199.77305603 C0.11958176 194.83665064 -0.29115129 190.47721751 -0.24050903 184.10966492 C-0.24221788 183.32135074 -0.24392673 182.53303656 -0.24568737 181.72083408 C-0.24897806 179.08292086 -0.23798552 176.44526278 -0.22705078 173.80737305 C-0.22648658 171.91503404 -0.22680341 170.02269459 -0.22793579 168.13035583 C-0.22850994 162.99441375 -0.21674547 157.85856496 -0.20278788 152.72264457 C-0.19029096 147.35479946 -0.18911084 141.98695226 -0.18673706 136.61909485 C-0.18051924 126.45485811 -0.16410432 116.29066435 -0.14403808 106.12644655 C-0.12168849 94.55460998 -0.11068801 82.98277137 -0.10064721 71.41091859 C-0.07973837 47.60725522 -0.0445565 23.80363002 0 0 Z " fill="#FFFFFF" transform="translate(517,21)"/>
<path d="M0 0 C4.58978038 -0.0992963 9.17892788 -0.17166748 13.76953125 -0.21972656 C15.32921244 -0.23977222 16.88881913 -0.26701657 18.44824219 -0.30175781 C20.69745314 -0.35059126 22.9456659 -0.37303815 25.1953125 -0.390625 C26.23161301 -0.42159271 26.23161301 -0.42159271 27.28884888 -0.45318604 C32.32355033 -0.45548993 35.15572943 0.7987463 39 4 C42.75305007 10.9080739 42.44115408 17.85644524 42.43237305 25.57617188 C42.44140264 26.93694949 42.45173278 28.297719 42.46325684 29.65847778 C42.49071274 33.33146245 42.5000957 37.00429231 42.50611091 40.67736626 C42.51552448 44.52378283 42.54173017 48.37008512 42.56611633 52.21643066 C42.60970327 59.49058114 42.63829806 66.76470933 42.66143972 74.03895044 C42.68853337 82.32441318 42.73244222 90.60976049 42.77772844 98.89514065 C42.87046283 115.93003424 42.94219472 132.9649528 43 150 C43.99 150.33 44.98 150.66 46 151 C46 101.83 46 52.66 46 2 C59.86 2 73.72 2 88 2 C88.01458252 6.40706299 88.02916504 10.81412598 88.04418945 15.35473633 C88.09444222 29.88745302 88.160869 44.42006214 88.23571491 58.952672 C88.28071309 67.76701984 88.32011839 76.58132691 88.34643555 85.39575195 C88.36938315 93.07688582 88.40274466 100.75789111 88.44870156 108.43892306 C88.47267768 112.50736994 88.49137759 116.57568913 88.49761391 120.64420509 C88.50364505 124.47164137 88.52357274 128.29875075 88.55427551 132.12606621 C88.56308753 133.53254556 88.5667718 134.93906758 88.56500816 136.34557343 C88.56336299 138.2625903 88.58177332 140.17959343 88.60127258 142.09651184 C88.60588155 143.17040067 88.61049051 144.24428949 88.61523914 145.35072041 C89.04541081 148.31267713 89.66334955 149.2083499 92 151 C91.99723462 150.29615929 91.99446924 149.59231857 91.99162006 148.86714935 C91.92530196 131.72332212 91.8756911 114.57952757 91.84456348 97.43560028 C91.82910943 89.14484545 91.80804793 80.85417636 91.77368164 72.56347656 C91.74373445 65.33540237 91.72441438 58.10739029 91.71773452 50.87925577 C91.71383124 47.05371821 91.70468869 43.22835831 91.68280983 39.40287781 C91.66236047 35.79793962 91.65618313 32.19325133 91.66067696 28.58826065 C91.65946554 26.64314833 91.64336777 24.69806286 91.6267395 22.75302124 C91.65479178 14.7798039 92.02497491 8.77534847 97.11658955 2.31401825 C100.74583106 -0.59855047 103.47365719 -0.64832176 107.92578125 -0.48828125 C108.67337204 -0.48120651 109.42096283 -0.47413177 110.19120789 -0.46684265 C112.56601402 -0.43897645 114.93841351 -0.37626132 117.3125 -0.3125 C118.92770018 -0.28740668 120.54293754 -0.26459531 122.15820312 -0.24414062 C126.10638819 -0.18917647 130.05278689 -0.10296527 134 0 C134.07006302 24.93004578 134.12297494 49.86007681 134.15543652 74.79020119 C134.17090921 86.36553869 134.1920065 97.94081503 134.22631836 109.51611328 C134.2562083 119.60445648 134.27557207 129.69275539 134.28226548 139.78114164 C134.28617841 145.12348435 134.29538283 150.46570035 134.31719017 155.80800247 C134.33754884 160.83614111 134.34383501 165.86410082 134.33932304 170.89227676 C134.34014852 172.73775708 134.34611782 174.58324337 134.35761642 176.42868805 C134.37255088 178.94914853 134.36895023 181.46893417 134.36076355 183.9894104 C134.36950207 184.71899542 134.3782406 185.44858045 134.38724393 186.20027411 C134.33613929 192.02466024 132.75631267 195.92390517 129.01902771 200.34165955 C124.36177347 202.89987161 119.9273378 202.56517818 114.69555664 202.53344727 C112.98253609 202.54637062 112.98253609 202.54637062 111.23490906 202.55955505 C107.45976092 202.58225819 103.68535249 202.57546747 99.91015625 202.56640625 C97.28608479 202.57164 94.66201521 202.57791556 92.03794861 202.58518982 C86.53767579 202.59703322 81.03761367 202.59134961 75.53735352 202.57641602 C69.18702616 202.55949693 62.83738631 202.57532781 56.48713404 202.6076389 C50.36868767 202.63758657 44.2505552 202.63951298 38.13204765 202.6301403 C35.53291365 202.62931985 32.93376543 202.63620107 30.33467293 202.65091133 C26.70055122 202.66832527 23.06790034 202.6538379 19.43383789 202.63110352 C17.82289749 202.64864182 17.82289749 202.64864182 16.17941284 202.66653442 C8.03872589 202.56288946 8.03872589 202.56288946 4.41038513 199.77305603 C0.11958176 194.83665064 -0.29115129 190.47721751 -0.24050903 184.10966492 C-0.24221788 183.32135074 -0.24392673 182.53303656 -0.24568737 181.72083408 C-0.24897806 179.08292086 -0.23798552 176.44526278 -0.22705078 173.80737305 C-0.22648658 171.91503404 -0.22680341 170.02269459 -0.22793579 168.13035583 C-0.22850994 162.99441375 -0.21674547 157.85856496 -0.20278788 152.72264457 C-0.19029096 147.35479946 -0.18911084 141.98695226 -0.18673706 136.61909485 C-0.18051924 126.45485811 -0.16410432 116.29066435 -0.14403808 106.12644655 C-0.12168849 94.55460998 -0.11068801 82.98277137 -0.10064721 71.41091859 C-0.07973837 47.60725522 -0.0445565 23.80363002 0 0 Z " fill="#FFFFFF" transform="translate(121,21)"/>
<path d="M0 0 C1.04484306 -0.00569504 1.04484306 -0.00569504 2.11079407 -0.01150513 C4.40237139 -0.01888612 6.69266718 0.00243329 8.98413086 0.02490234 C10.58165844 0.02728813 12.17918886 0.0281918 13.77671814 0.02767944 C17.11987957 0.0308031 20.46261083 0.04733582 23.80566406 0.07421875 C28.08859588 0.10822563 32.37105606 0.11584627 36.65410709 0.11432838 C39.95096835 0.11487245 43.24772674 0.12584497 46.54455376 0.14033127 C48.12378601 0.1466899 49.70302989 0.15063598 51.28227425 0.15211868 C53.48916573 0.15646017 55.69555946 0.17397793 57.90234375 0.1953125 C59.78500694 0.20674789 59.78500694 0.20674789 61.70570374 0.21841431 C64.7491317 0.47429264 66.40644681 0.75737677 68.88647461 2.48583984 C74.11244186 10.25013404 74.03786779 17.53314934 74.04760742 26.67260742 C74.05505478 28.34935799 74.05505478 28.34935799 74.06265259 30.0599823 C74.07723211 33.75011821 74.08406884 37.44021114 74.08959961 41.13037109 C74.09535405 43.70098369 74.10111174 46.27159628 74.10687256 48.84220886 C74.11603005 53.54189619 74.12233553 58.24156641 74.12536931 62.94126111 C74.12984767 69.838869 74.14739309 76.73627849 74.17636991 83.63382608 C74.20066442 89.62671814 74.2083171 95.61951693 74.21004486 101.612463 C74.21306617 104.15329761 74.22107703 106.69413149 74.23423004 109.23493385 C74.25133965 112.79373727 74.24939809 116.35206048 74.24291992 119.91088867 C74.2521347 120.95379059 74.26134949 121.9966925 74.27084351 123.07119751 C74.22962473 130.32253356 73.54202909 137.16639675 68.88647461 142.98583984 C64.75272387 146.0861529 60.42678422 145.61552976 55.49975586 145.58349609 C54.68274704 145.58208115 53.86573822 145.5806662 53.02397156 145.57920837 C50.41560193 145.57361279 47.80731827 145.56106113 45.19897461 145.54833984 C43.43009564 145.54332427 41.66121533 145.53876146 39.89233398 145.53466797 C35.55701442 145.5236448 31.22175909 145.50638322 26.88647461 145.48583984 C27.54647461 147.13583984 28.20647461 148.78583984 28.88647461 150.48583984 C51.16147461 150.98083984 51.16147461 150.98083984 73.88647461 151.48583984 C73.88647461 168.31583984 73.88647461 185.14583984 73.88647461 202.48583984 C53.91228756 202.68638389 53.91228756 202.68638389 45.38647461 202.72998047 C39.57276545 202.75984979 33.75945068 202.7951535 27.94604492 202.86303711 C23.25814625 202.91743441 18.57067059 202.94727671 13.88248062 202.96022606 C12.09549425 202.96945211 10.30853058 202.98746884 8.5217247 203.01449013 C6.01503549 203.05088429 3.51008549 203.05578105 1.00317383 203.0534668 C-0.10058342 203.08043137 -0.10058342 203.08043137 -1.22663879 203.10794067 C-4.99549188 203.07038668 -7.54442646 202.53912861 -10.49581909 200.26286316 C-14.94665856 195.5411398 -15.40875785 191.31623734 -15.3742218 185.01551819 C-15.37804735 184.27227293 -15.3818729 183.52902767 -15.38581437 182.76325983 C-15.39611728 180.27756637 -15.39215741 177.79210507 -15.38818359 175.30639648 C-15.39253156 173.52231126 -15.39771499 171.73822791 -15.40367126 169.95414734 C-15.4170631 165.11119876 -15.41763975 160.26832822 -15.41510797 155.42536473 C-15.41403843 151.38204394 -15.41892115 147.33873895 -15.42371339 143.29542154 C-15.4348091 133.75675013 -15.43524554 124.2181181 -15.42919922 114.67944336 C-15.42315772 104.83929368 -15.43547478 94.99928692 -15.45676929 85.15916163 C-15.4743818 76.7097708 -15.48038722 68.26042549 -15.47713155 59.81101698 C-15.47531807 54.76498907 -15.47796137 49.71906312 -15.49184608 44.67305183 C-15.50441417 39.92798634 -15.50248996 35.18314378 -15.4894352 30.43808174 C-15.48706769 28.69742254 -15.48981035 26.95674769 -15.49805832 25.21610641 C-15.50851284 22.83819374 -15.50043599 20.46103093 -15.48774719 18.08314514 C-15.49512148 17.3958802 -15.50249576 16.70861526 -15.51009351 16.0005241 C-15.44551321 10.23980732 -13.84096585 6.29163099 -9.87062073 2.14120483 C-6.36341244 0.03547068 -4.07932464 -0.00925725 0 0 Z M27.88647461 52.48583984 C26.44722593 53.6965578 26.44722593 53.6965578 26.77294922 57.27124023 C26.77310838 58.95866714 26.77880544 60.64609889 26.78881836 62.33349609 C26.79023331 63.21992294 26.79164825 64.10634979 26.79310608 65.01963806 C26.79872245 67.86257239 26.8112777 70.70542915 26.82397461 73.54833984 C26.8289875 75.47086475 26.83355077 77.39339089 26.83764648 79.31591797 C26.8486972 84.03925534 26.86597278 88.76253442 26.88647461 93.48583984 C28.20647461 93.48583984 29.52647461 93.48583984 30.88647461 93.48583984 C30.88647461 80.28583984 30.88647461 67.08583984 30.88647461 53.48583984 C29.89647461 53.15583984 28.90647461 52.82583984 27.88647461 52.48583984 Z " fill="#FFFFFF" transform="translate(274.113525390625,20.51416015625)"/>
<path d="M0 0 C4.6081187 -0.07436755 9.21588514 -0.12870394 13.82446289 -0.16479492 C15.39093107 -0.17984622 16.95735736 -0.20029207 18.52368164 -0.22631836 C20.78021606 -0.26286433 23.03619153 -0.27976261 25.29296875 -0.29296875 C25.98899704 -0.30845261 26.68502533 -0.32393646 27.40214539 -0.33988953 C31.79405938 -0.34139667 34.50355443 0.32119712 38 3 C41.67036613 7.98121117 42.11938785 12.75030693 42.15821838 18.80232239 C42.1680072 19.96193481 42.17779602 21.12154724 42.18788147 22.31629944 C42.19651466 24.21091164 42.19651466 24.21091164 42.20532227 26.14379883 C42.21490783 27.49427587 42.22491831 28.84474995 42.23532104 30.19522095 C42.2623027 33.85388012 42.28334864 37.51255211 42.30332303 41.17125535 C42.32522427 44.99763195 42.35259268 48.82396937 42.37937927 52.65031433 C42.42925028 59.89269167 42.47420981 67.13509082 42.51740164 74.37751073 C42.56682186 82.62417035 42.62172222 90.87079065 42.67708123 99.11741221 C42.79081541 116.07823843 42.89767303 133.0391012 43 150 C43.99 150.33 44.98 150.66 46 151 C46 101.83 46 52.66 46 2 C59.86 2 73.72 2 88 2 C88 68 88 134 88 202 C8 202 8 202 2 197 C-0.40241451 192.90280868 -0.27734783 188.74162667 -0.24050903 184.10966492 C-0.24221788 183.32135074 -0.24392673 182.53303656 -0.24568737 181.72083408 C-0.24897806 179.08292086 -0.23798552 176.44526278 -0.22705078 173.80737305 C-0.22648658 171.91503404 -0.22680341 170.02269459 -0.22793579 168.13035583 C-0.22850994 162.99441375 -0.21674547 157.85856496 -0.20278788 152.72264457 C-0.19029096 147.35479946 -0.18911084 141.98695226 -0.18673706 136.61909485 C-0.18051924 126.45485811 -0.16410432 116.29066435 -0.14403808 106.12644655 C-0.12168849 94.55460998 -0.11068801 82.98277137 -0.10064721 71.41091859 C-0.07973837 47.60725522 -0.0445565 23.80363002 0 0 Z " fill="#FFFFFF" transform="translate(839,21)"/>
<path d="M0 0 C4.6081187 -0.07436755 9.21588514 -0.12870394 13.82446289 -0.16479492 C15.39093107 -0.17984622 16.95735736 -0.20029207 18.52368164 -0.22631836 C20.78021606 -0.26286433 23.03619153 -0.27976261 25.29296875 -0.29296875 C25.98899704 -0.30845261 26.68502533 -0.32393646 27.40214539 -0.33988953 C31.79405938 -0.34139667 34.50355443 0.32119712 38 3 C41.67036613 7.98121117 42.11938785 12.75030693 42.15821838 18.80232239 C42.1680072 19.96193481 42.17779602 21.12154724 42.18788147 22.31629944 C42.19651466 24.21091164 42.19651466 24.21091164 42.20532227 26.14379883 C42.21490783 27.49427587 42.22491831 28.84474995 42.23532104 30.19522095 C42.2623027 33.85388012 42.28334864 37.51255211 42.30332303 41.17125535 C42.32522427 44.99763195 42.35259268 48.82396937 42.37937927 52.65031433 C42.42925028 59.89269167 42.47420981 67.13509082 42.51740164 74.37751073 C42.56682186 82.62417035 42.62172222 90.87079065 42.67708123 99.11741221 C42.79081541 116.07823843 42.89767303 133.0391012 43 150 C43.99 150.33 44.98 150.66 46 151 C46 101.83 46 52.66 46 2 C59.86 2 73.72 2 88 2 C88 68 88 134 88 202 C8 202 8 202 2 197 C-0.40241451 192.90280868 -0.27734783 188.74162667 -0.24050903 184.10966492 C-0.24221788 183.32135074 -0.24392673 182.53303656 -0.24568737 181.72083408 C-0.24897806 179.08292086 -0.23798552 176.44526278 -0.22705078 173.80737305 C-0.22648658 171.91503404 -0.22680341 170.02269459 -0.22793579 168.13035583 C-0.22850994 162.99441375 -0.21674547 157.85856496 -0.20278788 152.72264457 C-0.19029096 147.35479946 -0.18911084 141.98695226 -0.18673706 136.61909485 C-0.18051924 126.45485811 -0.16410432 116.29066435 -0.14403808 106.12644655 C-0.12168849 94.55460998 -0.11068801 82.98277137 -0.10064721 71.41091859 C-0.07973837 47.60725522 -0.0445565 23.80363002 0 0 Z " fill="#FFFFFF" transform="translate(655,21)"/>
<path d="M0 0 C0.69334946 -0.00861557 1.38669891 -0.01723114 2.10105896 -0.02610779 C4.38294278 -0.0487285 6.66359446 -0.04203666 8.94555664 -0.03295898 C10.53829817 -0.03819664 12.13103659 -0.04447365 13.72377014 -0.05174255 C17.05850847 -0.06213971 20.39281991 -0.05759591 23.72753906 -0.04296875 C27.99271974 -0.02578807 32.25655235 -0.04926936 36.5215826 -0.08445835 C39.80999104 -0.1064622 43.09807845 -0.10498368 46.38653755 -0.09669304 C47.95855754 -0.09587502 49.53060145 -0.10270997 51.10255241 -0.11746407 C53.30487776 -0.13496571 55.50480076 -0.12032578 57.70703125 -0.09765625 C58.95769882 -0.09669449 60.20836639 -0.09573273 61.49693298 -0.09474182 C66.1149043 0.75317453 67.66492095 2.16001984 70.91821289 5.53344727 C72.85783562 9.05824865 73.16429412 11.9794298 73.14526367 15.96630859 C73.14511261 17.02703079 73.14496155 18.08775299 73.14480591 19.18061829 C73.13448334 20.31412216 73.12416077 21.44762604 73.11352539 22.61547852 C73.1106955 23.78479416 73.1078656 24.9541098 73.10494995 26.15885925 C73.09376851 29.88799334 73.06866723 33.61688595 73.04321289 37.34594727 C73.03318048 39.87654275 73.02405508 42.40714201 73.01586914 44.93774414 C72.99553875 51.1364794 72.95638517 57.33469348 72.91821289 63.53344727 C59.05821289 63.53344727 45.19821289 63.53344727 30.91821289 63.53344727 C30.58821289 60.23344727 30.25821289 56.93344727 29.91821289 53.53344727 C29.25821289 53.53344727 28.59821289 53.53344727 27.91821289 53.53344727 C27.58821289 59.14344727 27.25821289 64.75344727 26.91821289 70.53344727 C29.59172852 70.47543945 32.26524414 70.41743164 35.01977539 70.35766602 C37.62114498 70.31862566 40.22248143 70.28829248 42.82397461 70.25878906 C44.62620755 70.23370861 46.4283394 70.19963539 48.23022461 70.15625 C50.82699566 70.09530976 53.42241754 70.06717381 56.01977539 70.04516602 C57.22012924 70.00645638 57.22012924 70.00645638 58.44473267 69.96696472 C62.45034793 69.96497515 65.12288692 70.26020524 68.34936523 72.75146484 C73.59314174 78.43031233 73.21078623 83.91197098 73.19287109 91.28710938 C73.19798203 92.37060165 73.20309296 93.45409393 73.20835876 94.57041931 C73.22225433 98.15059946 73.22129804 101.73058711 73.21899414 105.31079102 C73.22288095 107.80033947 73.22721559 110.28988727 73.23197937 112.7794342 C73.23944142 117.99718373 73.23915028 123.2148656 73.23388672 128.43261719 C73.22851447 133.78978681 73.23556083 139.14676747 73.25439453 144.50390625 C73.27685027 150.97414173 73.28464759 157.44421936 73.28072166 163.91449165 C73.28123511 166.37964997 73.28647724 168.84481201 73.29653358 171.30994987 C73.30886993 174.75694656 73.3021227 178.20340259 73.29052734 181.65039062 C73.29817108 182.66824646 73.30581482 183.68610229 73.31369019 184.73480225 C73.26361488 191.46980485 72.49765457 195.84281262 67.67332458 200.87510681 C64.18384131 202.97547584 61.89822566 203.04675056 57.83642578 203.06689453 C57.14307632 203.0755101 56.44972687 203.08412567 55.73536682 203.09300232 C53.453483 203.11562303 51.17283132 203.10893119 48.89086914 203.09985352 C47.29812761 203.10509117 45.70538919 203.11136818 44.11265564 203.11863708 C40.77791731 203.12903425 37.44360587 203.12449044 34.10888672 203.10986328 C29.84370604 203.0926826 25.57987343 203.11616389 21.31484318 203.15135288 C18.02643474 203.17335673 14.73834733 203.17187821 11.44988823 203.16358757 C9.87786824 203.16276955 8.30582433 203.1696045 6.73387337 203.1843586 C4.53154803 203.20186025 2.33162502 203.18722031 0.12939453 203.16455078 C-1.12127304 203.16358902 -2.37194061 203.16262726 -3.6605072 203.16163635 C-8.27847852 202.31372 -9.82849517 200.90687469 -13.08178711 197.53344727 C-15.26781705 193.68067428 -15.32559131 190.28824476 -15.30883789 185.90722656 C-15.30912994 185.26276077 -15.309422 184.61829498 -15.3097229 183.95429993 C-15.30833716 181.83861505 -15.29281217 179.72328885 -15.27709961 177.60766602 C-15.27336678 176.13507784 -15.27052108 174.66248718 -15.26852417 173.18989563 C-15.26090893 169.32487054 -15.24127874 165.45999714 -15.21911621 161.59503174 C-15.19500356 156.95191329 -15.18586674 152.30874397 -15.17420959 147.66558075 C-15.15485295 140.62143095 -15.11651595 133.57761359 -15.08178711 126.53344727 C-1.22178711 126.53344727 12.63821289 126.53344727 26.91821289 126.53344727 C27.41321289 137.91844727 27.41321289 137.91844727 27.91821289 149.53344727 C28.57821289 149.53344727 29.23821289 149.53344727 29.91821289 149.53344727 C30.24821289 140.29344727 30.57821289 131.05344727 30.91821289 121.53344727 C26.99881836 121.5856543 26.99881836 121.5856543 23.00024414 121.63891602 C20.46176241 121.66233095 17.92329284 121.68053647 15.38476562 121.69824219 C13.62429393 121.7133028 11.86385959 121.73375552 10.10351562 121.75976562 C7.56899786 121.79626955 5.03497737 121.81320081 2.50024414 121.82641602 C1.71672073 121.84189987 0.93319733 121.85738373 0.12593079 121.87333679 C-4.48491152 121.87474792 -7.59597402 121.65403233 -11.08178711 118.53344727 C-15.01652631 112.69762212 -15.65786721 107.44008672 -15.58349609 100.54077148 C-15.58889908 99.57388397 -15.59430206 98.60699646 -15.59986877 97.61080933 C-15.61230771 94.43626667 -15.59589928 91.26263936 -15.57788086 88.08813477 C-15.57803593 85.87191724 -15.57952631 83.65569945 -15.58229065 81.43948364 C-15.58367239 76.80450388 -15.57115183 72.16983441 -15.54833984 67.53491211 C-15.51992299 61.59874316 -15.52270471 55.66308821 -15.53542995 49.72688103 C-15.54238877 45.15434388 -15.53459601 40.58192525 -15.52217293 36.00940323 C-15.51766277 33.82057271 -15.51731781 31.63172945 -15.52123833 29.4428978 C-15.52415332 26.38411155 -15.50763035 23.32603098 -15.48583984 20.26733398 C-15.49034149 19.36640015 -15.49484314 18.46546631 -15.4994812 17.53723145 C-15.42394709 11.14574787 -14.40255198 6.95425421 -9.8368988 2.19178772 C-6.34741553 0.09141869 -4.06179988 0.02014397 0 0 Z " fill="#FFFFFF" transform="translate(762.081787109375,20.466552734375)"/>
<path d="M0 0 C0.69334946 -0.00861557 1.38669891 -0.01723114 2.10105896 -0.02610779 C4.38294278 -0.0487285 6.66359446 -0.04203666 8.94555664 -0.03295898 C10.53829817 -0.03819664 12.13103659 -0.04447365 13.72377014 -0.05174255 C17.05850847 -0.06213971 20.39281991 -0.05759591 23.72753906 -0.04296875 C27.99271974 -0.02578807 32.25655235 -0.04926936 36.5215826 -0.08445835 C39.80999104 -0.1064622 43.09807845 -0.10498368 46.38653755 -0.09669304 C47.95855754 -0.09587502 49.53060145 -0.10270997 51.10255241 -0.11746407 C53.30487776 -0.13496571 55.50480076 -0.12032578 57.70703125 -0.09765625 C58.95769882 -0.09669449 60.20836639 -0.09573273 61.49693298 -0.09474182 C66.1149043 0.75317453 67.66492095 2.16001984 70.91821289 5.53344727 C72.85783562 9.05824865 73.16429412 11.9794298 73.14526367 15.96630859 C73.14511261 17.02703079 73.14496155 18.08775299 73.14480591 19.18061829 C73.13448334 20.31412216 73.12416077 21.44762604 73.11352539 22.61547852 C73.1106955 23.78479416 73.1078656 24.9541098 73.10494995 26.15885925 C73.09376851 29.88799334 73.06866723 33.61688595 73.04321289 37.34594727 C73.03318048 39.87654275 73.02405508 42.40714201 73.01586914 44.93774414 C72.99553875 51.1364794 72.95638517 57.33469348 72.91821289 63.53344727 C59.05821289 63.53344727 45.19821289 63.53344727 30.91821289 63.53344727 C30.58821289 60.23344727 30.25821289 56.93344727 29.91821289 53.53344727 C29.25821289 53.53344727 28.59821289 53.53344727 27.91821289 53.53344727 C27.58821289 59.14344727 27.25821289 64.75344727 26.91821289 70.53344727 C29.59172852 70.47543945 32.26524414 70.41743164 35.01977539 70.35766602 C37.62114498 70.31862566 40.22248143 70.28829248 42.82397461 70.25878906 C44.62620755 70.23370861 46.4283394 70.19963539 48.23022461 70.15625 C50.82699566 70.09530976 53.42241754 70.06717381 56.01977539 70.04516602 C57.22012924 70.00645638 57.22012924 70.00645638 58.44473267 69.96696472 C62.45034793 69.96497515 65.12288692 70.26020524 68.34936523 72.75146484 C73.59314174 78.43031233 73.21078623 83.91197098 73.19287109 91.28710938 C73.19798203 92.37060165 73.20309296 93.45409393 73.20835876 94.57041931 C73.22225433 98.15059946 73.22129804 101.73058711 73.21899414 105.31079102 C73.22288095 107.80033947 73.22721559 110.28988727 73.23197937 112.7794342 C73.23944142 117.99718373 73.23915028 123.2148656 73.23388672 128.43261719 C73.22851447 133.78978681 73.23556083 139.14676747 73.25439453 144.50390625 C73.27685027 150.97414173 73.28464759 157.44421936 73.28072166 163.91449165 C73.28123511 166.37964997 73.28647724 168.84481201 73.29653358 171.30994987 C73.30886993 174.75694656 73.3021227 178.20340259 73.29052734 181.65039062 C73.29817108 182.66824646 73.30581482 183.68610229 73.31369019 184.73480225 C73.26361488 191.46980485 72.49765457 195.84281262 67.67332458 200.87510681 C64.18384131 202.97547584 61.89822566 203.04675056 57.83642578 203.06689453 C57.14307632 203.0755101 56.44972687 203.08412567 55.73536682 203.09300232 C53.453483 203.11562303 51.17283132 203.10893119 48.89086914 203.09985352 C47.29812761 203.10509117 45.70538919 203.11136818 44.11265564 203.11863708 C40.77791731 203.12903425 37.44360587 203.12449044 34.10888672 203.10986328 C29.84370604 203.0926826 25.57987343 203.11616389 21.31484318 203.15135288 C18.02643474 203.17335673 14.73834733 203.17187821 11.44988823 203.16358757 C9.87786824 203.16276955 8.30582433 203.1696045 6.73387337 203.1843586 C4.53154803 203.20186025 2.33162502 203.18722031 0.12939453 203.16455078 C-1.12127304 203.16358902 -2.37194061 203.16262726 -3.6605072 203.16163635 C-8.27847852 202.31372 -9.82849517 200.90687469 -13.08178711 197.53344727 C-15.26781705 193.68067428 -15.32559131 190.28824476 -15.30883789 185.90722656 C-15.30912994 185.26276077 -15.309422 184.61829498 -15.3097229 183.95429993 C-15.30833716 181.83861505 -15.29281217 179.72328885 -15.27709961 177.60766602 C-15.27336678 176.13507784 -15.27052108 174.66248718 -15.26852417 173.18989563 C-15.26090893 169.32487054 -15.24127874 165.45999714 -15.21911621 161.59503174 C-15.19500356 156.95191329 -15.18586674 152.30874397 -15.17420959 147.66558075 C-15.15485295 140.62143095 -15.11651595 133.57761359 -15.08178711 126.53344727 C-1.22178711 126.53344727 12.63821289 126.53344727 26.91821289 126.53344727 C27.41321289 137.91844727 27.41321289 137.91844727 27.91821289 149.53344727 C28.57821289 149.53344727 29.23821289 149.53344727 29.91821289 149.53344727 C30.24821289 140.29344727 30.57821289 131.05344727 30.91821289 121.53344727 C26.99881836 121.5856543 26.99881836 121.5856543 23.00024414 121.63891602 C20.46176241 121.66233095 17.92329284 121.68053647 15.38476562 121.69824219 C13.62429393 121.7133028 11.86385959 121.73375552 10.10351562 121.75976562 C7.56899786 121.79626955 5.03497737 121.81320081 2.50024414 121.82641602 C1.71672073 121.84189987 0.93319733 121.85738373 0.12593079 121.87333679 C-4.48491152 121.87474792 -7.59597402 121.65403233 -11.08178711 118.53344727 C-15.01652631 112.69762212 -15.65786721 107.44008672 -15.58349609 100.54077148 C-15.58889908 99.57388397 -15.59430206 98.60699646 -15.59986877 97.61080933 C-15.61230771 94.43626667 -15.59589928 91.26263936 -15.57788086 88.08813477 C-15.57803593 85.87191724 -15.57952631 83.65569945 -15.58229065 81.43948364 C-15.58367239 76.80450388 -15.57115183 72.16983441 -15.54833984 67.53491211 C-15.51992299 61.59874316 -15.52270471 55.66308821 -15.53542995 49.72688103 C-15.54238877 45.15434388 -15.53459601 40.58192525 -15.52217293 36.00940323 C-15.51766277 33.82057271 -15.51731781 31.63172945 -15.52123833 29.4428978 C-15.52415332 26.38411155 -15.50763035 23.32603098 -15.48583984 20.26733398 C-15.49034149 19.36640015 -15.49484314 18.46546631 -15.4994812 17.53723145 C-15.42394709 11.14574787 -14.40255198 6.95425421 -9.8368988 2.19178772 C-6.34741553 0.09141869 -4.06179988 0.02014397 0 0 Z " fill="#FFFFFF" transform="translate(366.081787109375,20.466552734375)"/>
<path d="M0 0 C13.86 0 27.72 0 42 0 C42 30.69 42 61.38 42 93 C42.99 92.67 43.98 92.34 45 92 C45.00586624 91.03026749 45.01173248 90.06053497 45.01777649 89.06141663 C45.07513797 79.89590223 45.14796916 70.73062203 45.23571491 61.56534672 C45.28032863 56.85404758 45.31960434 52.14283312 45.34643555 47.43139648 C45.37255861 42.87951185 45.41302398 38.32795467 45.46318626 33.77627373 C45.47979432 32.04490691 45.49134617 30.31348354 45.49761391 28.58204842 C45.58138393 7.55691977 45.58138393 7.55691977 51.11592102 1.79847717 C54.77069743 -0.4805977 57.75758332 -0.51049237 61.92578125 -0.390625 C63.04716743 -0.38213531 63.04716743 -0.38213531 64.19120789 -0.37347412 C66.56563911 -0.35118468 68.93852938 -0.30100656 71.3125 -0.25 C72.92771249 -0.22992519 74.54294877 -0.21167613 76.15820312 -0.1953125 C80.10605733 -0.15134486 84.05276792 -0.08237261 88 0 C88.06953885 11.76126405 88.12283113 23.5224791 88.15543652 35.28390694 C88.1710862 40.74533479 88.19231195 46.2066219 88.22631836 51.66796875 C88.25893635 56.93938453 88.27685827 62.210665 88.28463173 67.48217392 C88.29017083 69.49240117 88.30098734 71.5026211 88.31719017 73.51279068 C88.3389967 76.33046673 88.34196555 79.14758505 88.34057617 81.96533203 C88.351362 82.79467758 88.36214783 83.62402313 88.3732605 84.47850037 C88.34037266 90.65045134 87.12423088 94.87576912 82.625 99.375 C79.75311885 101.15283119 78.30843123 101.37810643 75 101 C75 101.99 75 102.98 75 104 C76.5778125 104.309375 76.5778125 104.309375 78.1875 104.625 C82.68271216 105.89241276 84.37530099 108.21734555 87 112 C88.26812865 115.80438596 88.13127336 119.3642604 88.11352539 123.3269043 C88.11367142 124.17590302 88.11381744 125.02490173 88.1139679 125.89962769 C88.11327083 128.70785063 88.10548806 131.51600738 88.09765625 134.32421875 C88.09579134 136.27049219 88.09436778 138.21676609 88.09336853 140.16304016 C88.08954912 145.28733617 88.07972373 150.41160386 88.06866455 155.53588867 C88.05843806 160.76415626 88.05386825 165.99242842 88.04882812 171.22070312 C88.03810097 181.48048119 88.02103143 191.74023824 88 202 C83.24949181 202.09913574 78.49959024 202.17159264 73.74829102 202.21972656 C72.13327542 202.23979892 70.51833211 202.2670633 68.90356445 202.30175781 C66.57745499 202.35047215 64.25230907 202.37301154 61.92578125 202.390625 C61.20787918 202.41127014 60.48997711 202.43191528 59.75032043 202.45318604 C56.19303197 202.45476578 54.16242732 202.10090274 51.11592102 200.20835876 C44.17287893 192.96199763 45.52618697 181.97087019 45.48828125 172.58984375 C45.47141007 171.01085536 45.45325659 169.43188021 45.43388367 167.85292053 C45.3866419 163.72502783 45.35666639 159.5971888 45.33044434 155.46911621 C45.3005075 151.24557909 45.25402271 147.02222643 45.20898438 142.79882812 C45.12324559 134.53264328 45.05577056 126.26644114 45 118 C44.01 117.67 43.02 117.34 42 117 C42 145.05 42 173.1 42 202 C28.14 202 14.28 202 0 202 C0 135.34 0 68.68 0 0 Z " fill="#FFFFFF" transform="translate(29,21)"/>
<path d="M0 0 C13.86 0 27.72 0 42 0 C42 50.16 42 100.32 42 152 C28.14 152 14.28 152 0 152 C0 101.84 0 51.68 0 0 Z " fill="#FFFFFF" transform="translate(443,71)"/>
<path d="M0 0 C13.86 0 27.72 0 42 0 C42 14.85 42 29.7 42 45 C28.14 45 14.28 45 0 45 C0 30.15 0 15.3 0 0 Z " fill="#FFFFFF" transform="translate(443,21)"/>
</svg>
